<svg id="visual" viewBox="0 0 900 600" width="900" height="600" xmlns="http://www.w3.org/2000/svg" xmlns:xlink="http://www.w3.org/1999/xlink" version="1.1"><rect x="0" y="0" width="900" height="600" fill="#002233"></rect><path d="M0 479L37.5 476.8C75 474.7 150 470.3 225 460.2C300 450 375 434 450 447.2C525 460.3 600 502.7 675 514.5C750 526.3 825 507.7 862.5 498.3L900 489L900 601L862.5 601C825 601 750 601 675 601C600 601 525 601 450 601C375 601 300 601 225 601C150 601 75 601 37.5 601L0 601Z" fill="#0066FF" strokeLinecap="round" strokeLinejoin="miter"></path></svg>